<svg xmlns="http://www.w3.org/2000/svg" viewBox="0 0 450 280">
<defs><linearGradient id="g" x1="0" y1="0" x2="1" y2="1">
<stop offset="0%" stop-color="#dbe7f0"/><stop offset="100%" stop-color="#aac4d8"/>
</linearGradient></defs>
<rect width="450" height="280" fill="url(#g)"/>
<path d="M120 130 h80 a10 10 0 0 1 10 10 v30 a10 10 0 0 1 -10 10 h-50 l-18 16 v-16 h-12 a10 10 0 0 1 -10 -10 v-30 a10 10 0 0 1 10 -10z" fill="#5b7e99" opacity="0.55"/><path d="M230 100 h80 a10 10 0 0 1 10 10 v30 a10 10 0 0 1 -10 10 h-12 v16 l-18 -16 h-50 a10 10 0 0 1 -10 -10 v-30 a10 10 0 0 1 10 -10z" fill="#5b7e99" opacity="0.35"/>
</svg>